<mxfile host="Electron" modified="2024-07-09T07:49:44.196Z" agent="Mozilla/5.0 (Windows NT 10.0; Win64; x64) AppleWebKit/537.36 (KHTML, like Gecko) draw.io/24.6.4 Chrome/124.0.6367.207 Electron/30.0.6 Safari/537.36" etag="BCbxCfuljnxST0iRoU4R" version="24.6.4" type="device" pages="4">
  <diagram name="class" id="7kDtjFcvaZWSDmit6YIc">
    <mxGraphModel dx="1668" dy="974" grid="1" gridSize="10" guides="1" tooltips="1" connect="1" arrows="1" fold="1" page="1" pageScale="1" pageWidth="827" pageHeight="1169" math="0" shadow="0">
      <root>
        <mxCell id="0" />
        <mxCell id="1" parent="0" />
        <mxCell id="OmQCOcIwtK4CeNsmhbro-1" value="&lt;p style=&quot;margin:0px;margin-top:4px;text-align:center;&quot;&gt;&lt;i&gt;&amp;lt;&amp;lt;Interface&amp;gt;&amp;gt;&lt;/i&gt;&lt;br&gt;&lt;b&gt;InterfaceFuture&lt;/b&gt;&lt;/p&gt;&lt;hr size=&quot;1&quot; style=&quot;border-style:solid;&quot;&gt;&lt;p style=&quot;margin:0px;margin-left:4px;&quot;&gt;&lt;span style=&quot;background-color: initial;&quot;&gt;+ init(): BOOL&lt;/span&gt;&lt;br&gt;&lt;/p&gt;&lt;p style=&quot;margin:0px;margin-left:4px;&quot;&gt;+ process(): BOOL&lt;/p&gt;&lt;p style=&quot;margin:0px;margin-left:4px;&quot;&gt;+ quit(): BOOL&lt;br&gt;&lt;/p&gt;" style="verticalAlign=top;align=left;overflow=fill;html=1;whiteSpace=wrap;" parent="1" vertex="1">
          <mxGeometry x="871.5" y="408" width="190" height="95" as="geometry" />
        </mxCell>
        <mxCell id="OmQCOcIwtK4CeNsmhbro-4" style="rounded=0;orthogonalLoop=1;jettySize=auto;html=1;endArrow=block;endFill=0;jumpSize=6;strokeWidth=1;endSize=16;dashed=1;" parent="1" source="OmQCOcIwtK4CeNsmhbro-9" target="OmQCOcIwtK4CeNsmhbro-1" edge="1">
          <mxGeometry relative="1" as="geometry">
            <mxPoint x="622" y="751" as="sourcePoint" />
            <mxPoint x="995" y="640" as="targetPoint" />
          </mxGeometry>
        </mxCell>
        <mxCell id="OmQCOcIwtK4CeNsmhbro-5" value="&amp;lt;&amp;lt;implements&amp;gt;&amp;gt;" style="edgeLabel;html=1;align=center;verticalAlign=middle;resizable=0;points=[];" parent="OmQCOcIwtK4CeNsmhbro-4" vertex="1" connectable="0">
          <mxGeometry x="0.0286" y="-2" relative="1" as="geometry">
            <mxPoint x="-2" as="offset" />
          </mxGeometry>
        </mxCell>
        <mxCell id="zkPYkb9g3C6WHACMUqwy-6" value="&amp;lt;&amp;lt;implements&amp;gt;&amp;gt;" style="rounded=0;orthogonalLoop=1;jettySize=auto;html=1;endArrow=block;endFill=0;endSize=16;dashed=1;strokeWidth=1;" parent="1" source="OmQCOcIwtK4CeNsmhbro-7" target="OmQCOcIwtK4CeNsmhbro-1" edge="1">
          <mxGeometry x="0.1282" y="-4" relative="1" as="geometry">
            <mxPoint as="offset" />
          </mxGeometry>
        </mxCell>
        <mxCell id="VgxVcK-PAi7iFJ9cptS9-3" value="&amp;lt;&amp;lt;implements&amp;gt;&amp;gt;" style="rounded=0;orthogonalLoop=1;jettySize=auto;html=1;endArrow=block;endFill=0;endSize=16;dashed=1;strokeWidth=1;" parent="1" source="OmQCOcIwtK4CeNsmhbro-7" target="VgxVcK-PAi7iFJ9cptS9-1" edge="1">
          <mxGeometry x="-0.3179" relative="1" as="geometry">
            <mxPoint as="offset" />
            <mxPoint x="330" y="242.88073394495405" as="targetPoint" />
          </mxGeometry>
        </mxCell>
        <mxCell id="OmQCOcIwtK4CeNsmhbro-7" value="&lt;p style=&quot;margin: 4px 0px 0px; text-align: center;&quot;&gt;&lt;b&gt;FB_ParallelJobContainer&lt;/b&gt;&lt;/p&gt;&lt;hr size=&quot;1&quot; style=&quot;border-style:solid;&quot;&gt;&lt;p style=&quot;margin:0px;margin-left:4px;&quot;&gt;&lt;br&gt;&lt;/p&gt;" style="verticalAlign=top;align=left;overflow=fill;html=1;whiteSpace=wrap;" parent="1" vertex="1">
          <mxGeometry x="210" y="200" width="186" height="60" as="geometry" />
        </mxCell>
        <mxCell id="OmQCOcIwtK4CeNsmhbro-9" value="&lt;p style=&quot;margin:0px;margin-top:4px;text-align:center;&quot;&gt;&lt;b&gt;FB_AbstructFuture&lt;/b&gt;&lt;/p&gt;&lt;hr size=&quot;1&quot; style=&quot;border-style:solid;&quot;&gt;&lt;p style=&quot;margin:0px;margin-left:4px;&quot;&gt;&lt;br&gt;&lt;/p&gt;" style="verticalAlign=top;align=left;overflow=fill;html=1;whiteSpace=wrap;" parent="1" vertex="1">
          <mxGeometry x="886.5" y="560" width="160" height="50" as="geometry" />
        </mxCell>
        <mxCell id="V6Ps13rOB0gfr6PQ3346-6" style="edgeStyle=orthogonalEdgeStyle;rounded=0;orthogonalLoop=1;jettySize=auto;html=1;endArrow=diamondThin;endFill=0;endSize=16;" parent="1" source="OmQCOcIwtK4CeNsmhbro-1" target="zkPYkb9g3C6WHACMUqwy-7" edge="1">
          <mxGeometry relative="1" as="geometry">
            <mxPoint x="727" y="334" as="sourcePoint" />
            <mxPoint x="787" y="434" as="targetPoint" />
          </mxGeometry>
        </mxCell>
        <mxCell id="TROOJqfMSccOllekPkPX-4" value="&lt;font style=&quot;font-size: 18px;&quot;&gt;0..1&lt;/font&gt;" style="edgeLabel;html=1;align=center;verticalAlign=middle;resizable=0;points=[];" vertex="1" connectable="0" parent="V6Ps13rOB0gfr6PQ3346-6">
          <mxGeometry x="0.0093" y="-1" relative="1" as="geometry">
            <mxPoint x="-50" y="16" as="offset" />
          </mxGeometry>
        </mxCell>
        <mxCell id="TROOJqfMSccOllekPkPX-5" value="&lt;font style=&quot;font-size: 18px;&quot;&gt;0..1&lt;/font&gt;" style="edgeLabel;html=1;align=center;verticalAlign=middle;resizable=0;points=[];" vertex="1" connectable="0" parent="V6Ps13rOB0gfr6PQ3346-6">
          <mxGeometry x="-0.548" y="1" relative="1" as="geometry">
            <mxPoint x="15" y="14" as="offset" />
          </mxGeometry>
        </mxCell>
        <mxCell id="zkPYkb9g3C6WHACMUqwy-4" style="rounded=0;orthogonalLoop=1;jettySize=auto;html=1;endArrow=block;endFill=0;startSize=6;endSize=16;dashed=1;strokeWidth=1;" parent="1" source="zkPYkb9g3C6WHACMUqwy-2" target="OmQCOcIwtK4CeNsmhbro-1" edge="1">
          <mxGeometry relative="1" as="geometry" />
        </mxCell>
        <mxCell id="zkPYkb9g3C6WHACMUqwy-5" value="&amp;lt;&amp;lt;implements&amp;gt;&amp;gt;" style="edgeLabel;html=1;align=center;verticalAlign=middle;resizable=0;points=[];" parent="zkPYkb9g3C6WHACMUqwy-4" vertex="1" connectable="0">
          <mxGeometry x="-0.0165" y="1" relative="1" as="geometry">
            <mxPoint x="-158" y="-12" as="offset" />
          </mxGeometry>
        </mxCell>
        <mxCell id="TROOJqfMSccOllekPkPX-2" value="&amp;lt;&amp;lt;implements&amp;gt;&amp;gt;" style="edgeLabel;html=1;align=center;verticalAlign=middle;resizable=0;points=[];" vertex="1" connectable="0" parent="zkPYkb9g3C6WHACMUqwy-4">
          <mxGeometry x="-0.7106" y="3" relative="1" as="geometry">
            <mxPoint x="37" y="41" as="offset" />
          </mxGeometry>
        </mxCell>
        <mxCell id="VgxVcK-PAi7iFJ9cptS9-2" value="&amp;lt;&amp;lt;implements&amp;gt;&amp;gt;" style="rounded=0;orthogonalLoop=1;jettySize=auto;html=1;endArrow=block;endFill=0;endSize=16;dashed=1;strokeWidth=1;" parent="1" source="zkPYkb9g3C6WHACMUqwy-2" target="VgxVcK-PAi7iFJ9cptS9-1" edge="1">
          <mxGeometry x="-0.7163" y="1" relative="1" as="geometry">
            <mxPoint as="offset" />
            <mxPoint x="330" y="259.20930232558135" as="targetPoint" />
          </mxGeometry>
        </mxCell>
        <mxCell id="zkPYkb9g3C6WHACMUqwy-2" value="&lt;p style=&quot;margin: 4px 0px 0px; text-align: center;&quot;&gt;&lt;b&gt;FB_Serilal&lt;/b&gt;&lt;b style=&quot;background-color: initial;&quot;&gt;JobContainer&lt;/b&gt;&lt;/p&gt;&lt;hr size=&quot;1&quot; style=&quot;border-style:solid;&quot;&gt;&lt;p style=&quot;margin:0px;margin-left:4px;&quot;&gt;&lt;br&gt;&lt;/p&gt;" style="verticalAlign=top;align=left;overflow=fill;html=1;whiteSpace=wrap;" parent="1" vertex="1">
          <mxGeometry x="420" y="200" width="190" height="60" as="geometry" />
        </mxCell>
        <mxCell id="TROOJqfMSccOllekPkPX-1" style="rounded=0;orthogonalLoop=1;jettySize=auto;html=1;endArrow=diamondThin;endFill=1;endSize=16;" edge="1" parent="1" source="zkPYkb9g3C6WHACMUqwy-7" target="VgxVcK-PAi7iFJ9cptS9-1">
          <mxGeometry relative="1" as="geometry" />
        </mxCell>
        <mxCell id="TROOJqfMSccOllekPkPX-6" value="&lt;font style=&quot;font-size: 18px;&quot;&gt;1&lt;/font&gt;" style="edgeLabel;html=1;align=center;verticalAlign=middle;resizable=0;points=[];" vertex="1" connectable="0" parent="TROOJqfMSccOllekPkPX-1">
          <mxGeometry x="0.3896" y="-1" relative="1" as="geometry">
            <mxPoint x="-29" y="16" as="offset" />
          </mxGeometry>
        </mxCell>
        <mxCell id="TROOJqfMSccOllekPkPX-7" value="&lt;font style=&quot;font-size: 18px;&quot;&gt;0..*&lt;/font&gt;" style="edgeLabel;html=1;align=center;verticalAlign=middle;resizable=0;points=[];" vertex="1" connectable="0" parent="TROOJqfMSccOllekPkPX-1">
          <mxGeometry x="-0.5195" y="3" relative="1" as="geometry">
            <mxPoint x="7" y="12" as="offset" />
          </mxGeometry>
        </mxCell>
        <mxCell id="zkPYkb9g3C6WHACMUqwy-7" value="&lt;p style=&quot;margin:0px;margin-top:4px;text-align:center;&quot;&gt;&lt;b&gt;FB_Executor&lt;/b&gt;&lt;/p&gt;&lt;hr size=&quot;1&quot; style=&quot;border-style:solid;&quot;&gt;&lt;p style=&quot;margin:0px;margin-left:4px;&quot;&gt;+ future: InterfaceFuture&lt;/p&gt;&lt;p style=&quot;margin:0px;margin-left:4px;&quot;&gt;+ active_task_id : UINT&lt;/p&gt;&lt;hr size=&quot;1&quot; style=&quot;border-style:solid;&quot;&gt;&lt;p style=&quot;margin:0px;margin-left:4px;&quot;&gt;+ init(): BOOL&lt;/p&gt;&lt;p style=&quot;margin:0px;margin-left:4px;&quot;&gt;+ execute(): BOOL&lt;/p&gt;" style="verticalAlign=top;align=left;overflow=fill;html=1;whiteSpace=wrap;" parent="1" vertex="1">
          <mxGeometry x="550" y="400" width="160" height="111" as="geometry" />
        </mxCell>
        <mxCell id="VgxVcK-PAi7iFJ9cptS9-1" value="&lt;p style=&quot;margin:0px;margin-top:4px;text-align:center;&quot;&gt;&lt;i&gt;&amp;lt;&amp;lt;Interface&amp;gt;&amp;gt;&lt;/i&gt;&lt;br&gt;&lt;b&gt;InterfaceContainer&lt;/b&gt;&lt;/p&gt;&lt;hr&gt;&amp;nbsp;active_futures : UINT&lt;br&gt;&amp;nbsp;num_of_future : UINT&lt;br&gt;&lt;hr size=&quot;1&quot; style=&quot;border-style:solid;&quot;&gt;&lt;p style=&quot;margin:0px;margin-left:4px;&quot;&gt;&lt;span style=&quot;background-color: initial;&quot;&gt;+ add_future(): BOOL&lt;/span&gt;&lt;/p&gt;&lt;p style=&quot;margin:0px;margin-left:4px;&quot;&gt;&lt;span style=&quot;background-color: initial;&quot;&gt;+ reset(): BOOL&lt;/span&gt;&lt;/p&gt;" style="verticalAlign=top;align=left;overflow=fill;html=1;whiteSpace=wrap;" parent="1" vertex="1">
          <mxGeometry x="206" y="395.5" width="190" height="120" as="geometry" />
        </mxCell>
        <mxCell id="Tg8npqFVqb7-epl1II_l-2" style="edgeStyle=orthogonalEdgeStyle;rounded=0;orthogonalLoop=1;jettySize=auto;html=1;endArrow=block;endFill=0;endSize=16;" parent="1" source="Tg8npqFVqb7-epl1II_l-1" target="OmQCOcIwtK4CeNsmhbro-9" edge="1">
          <mxGeometry relative="1" as="geometry" />
        </mxCell>
        <mxCell id="Tg8npqFVqb7-epl1II_l-1" value="&lt;p style=&quot;margin:0px;margin-top:4px;text-align:center;&quot;&gt;&lt;b&gt;User Function Block&lt;/b&gt;&lt;/p&gt;&lt;hr size=&quot;1&quot; style=&quot;border-style:solid;&quot;&gt;&lt;p style=&quot;margin:0px;margin-left:4px;&quot;&gt;&lt;br&gt;&lt;/p&gt;" style="verticalAlign=top;align=left;overflow=fill;html=1;whiteSpace=wrap;" parent="1" vertex="1">
          <mxGeometry x="886.5" y="660" width="160" height="50" as="geometry" />
        </mxCell>
        <mxCell id="Tg8npqFVqb7-epl1II_l-4" value="&lt;p style=&quot;margin: 4px 0px 0px; text-align: center;&quot;&gt;&lt;b&gt;FB_ParallelQueueJobContainer&lt;/b&gt;&lt;/p&gt;&lt;hr size=&quot;1&quot; style=&quot;border-style:solid;&quot;&gt;&lt;p style=&quot;margin:0px;margin-left:4px;&quot;&gt;&lt;br&gt;&lt;/p&gt;" style="verticalAlign=top;align=left;overflow=fill;html=1;whiteSpace=wrap;" parent="1" vertex="1">
          <mxGeometry x="635" y="200" width="210" height="60" as="geometry" />
        </mxCell>
        <mxCell id="Tg8npqFVqb7-epl1II_l-5" value="&lt;p style=&quot;margin: 4px 0px 0px; text-align: center;&quot;&gt;&lt;b&gt;FB_QueueJobContainer&lt;/b&gt;&lt;/p&gt;&lt;hr size=&quot;1&quot; style=&quot;border-style:solid;&quot;&gt;&lt;p style=&quot;margin:0px;margin-left:4px;&quot;&gt;&lt;br&gt;&lt;/p&gt;" style="verticalAlign=top;align=left;overflow=fill;html=1;whiteSpace=wrap;" parent="1" vertex="1">
          <mxGeometry x="870" y="200" width="193" height="60" as="geometry" />
        </mxCell>
        <mxCell id="Tg8npqFVqb7-epl1II_l-6" value="&amp;lt;&amp;lt;implements&amp;gt;&amp;gt;" style="rounded=0;orthogonalLoop=1;jettySize=auto;html=1;endArrow=block;endFill=0;endSize=16;dashed=1;strokeWidth=1;" parent="1" source="Tg8npqFVqb7-epl1II_l-4" target="VgxVcK-PAi7iFJ9cptS9-1" edge="1">
          <mxGeometry x="-0.7067" y="-2" relative="1" as="geometry">
            <mxPoint x="1" as="offset" />
            <mxPoint x="720.344827586207" y="180" as="sourcePoint" />
            <mxPoint x="330" y="264.97709923664115" as="targetPoint" />
          </mxGeometry>
        </mxCell>
        <mxCell id="Tg8npqFVqb7-epl1II_l-7" value="&amp;lt;&amp;lt;implements&amp;gt;&amp;gt;" style="rounded=0;orthogonalLoop=1;jettySize=auto;html=1;endArrow=block;endFill=0;endSize=16;dashed=1;strokeWidth=1;" parent="1" source="Tg8npqFVqb7-epl1II_l-5" target="VgxVcK-PAi7iFJ9cptS9-1" edge="1">
          <mxGeometry x="-0.7929" y="3" relative="1" as="geometry">
            <mxPoint as="offset" />
            <mxPoint x="910.689655172414" y="180" as="sourcePoint" />
            <mxPoint x="330" y="276" as="targetPoint" />
          </mxGeometry>
        </mxCell>
        <mxCell id="Tg8npqFVqb7-epl1II_l-8" style="rounded=0;orthogonalLoop=1;jettySize=auto;html=1;endArrow=block;endFill=0;startSize=6;endSize=16;dashed=1;strokeWidth=1;" parent="1" source="Tg8npqFVqb7-epl1II_l-4" target="OmQCOcIwtK4CeNsmhbro-1" edge="1">
          <mxGeometry relative="1" as="geometry">
            <mxPoint x="768.6571428571428" y="379" as="sourcePoint" />
            <mxPoint x="667.8761904761905" y="564" as="targetPoint" />
          </mxGeometry>
        </mxCell>
        <mxCell id="Tg8npqFVqb7-epl1II_l-9" value="&amp;lt;&amp;lt;implements&amp;gt;&amp;gt;" style="edgeLabel;html=1;align=center;verticalAlign=middle;resizable=0;points=[];" parent="Tg8npqFVqb7-epl1II_l-8" vertex="1" connectable="0">
          <mxGeometry x="-0.0165" y="1" relative="1" as="geometry">
            <mxPoint x="-1" y="-3" as="offset" />
          </mxGeometry>
        </mxCell>
        <mxCell id="Tg8npqFVqb7-epl1II_l-10" style="rounded=0;orthogonalLoop=1;jettySize=auto;html=1;endArrow=block;endFill=0;startSize=6;endSize=16;dashed=1;strokeWidth=1;" parent="1" source="Tg8npqFVqb7-epl1II_l-5" target="OmQCOcIwtK4CeNsmhbro-1" edge="1">
          <mxGeometry relative="1" as="geometry">
            <mxPoint x="972.3714285714286" y="379" as="sourcePoint" />
            <mxPoint x="709.4952380952382" y="564" as="targetPoint" />
          </mxGeometry>
        </mxCell>
        <mxCell id="Tg8npqFVqb7-epl1II_l-11" value="&amp;lt;&amp;lt;implements&amp;gt;&amp;gt;" style="edgeLabel;html=1;align=center;verticalAlign=middle;resizable=0;points=[];" parent="Tg8npqFVqb7-epl1II_l-10" vertex="1" connectable="0">
          <mxGeometry x="-0.0165" y="1" relative="1" as="geometry">
            <mxPoint x="17" y="-24" as="offset" />
          </mxGeometry>
        </mxCell>
      </root>
    </mxGraphModel>
  </diagram>
  <diagram id="p1hJGFE3X_Ek6dNZQfA9" name="concept">
    <mxGraphModel dx="1418" dy="828" grid="1" gridSize="10" guides="1" tooltips="1" connect="1" arrows="1" fold="1" page="1" pageScale="1" pageWidth="827" pageHeight="1169" math="0" shadow="0">
      <root>
        <mxCell id="0" />
        <mxCell id="1" parent="0" />
        <mxCell id="ekBKaKwR-G3LCnbJ7vXl-1" value="init" style="rounded=0;whiteSpace=wrap;html=1;" parent="1" vertex="1">
          <mxGeometry x="179" y="150" width="60" height="20" as="geometry" />
        </mxCell>
        <mxCell id="ekBKaKwR-G3LCnbJ7vXl-2" value="process" style="rounded=0;whiteSpace=wrap;html=1;fillColor=#f8cecc;strokeColor=#b85450;" parent="1" vertex="1">
          <mxGeometry x="239" y="150" width="150" height="20" as="geometry" />
        </mxCell>
        <mxCell id="ekBKaKwR-G3LCnbJ7vXl-7" style="edgeStyle=orthogonalEdgeStyle;rounded=0;orthogonalLoop=1;jettySize=auto;html=1;entryX=0;entryY=0;entryDx=0;entryDy=0;" parent="1" source="ekBKaKwR-G3LCnbJ7vXl-3" target="ekBKaKwR-G3LCnbJ7vXl-5" edge="1">
          <mxGeometry relative="1" as="geometry">
            <Array as="points">
              <mxPoint x="389" y="180" />
              <mxPoint x="389" y="180" />
            </Array>
          </mxGeometry>
        </mxCell>
        <mxCell id="ekBKaKwR-G3LCnbJ7vXl-3" value="quit" style="rounded=0;whiteSpace=wrap;html=1;" parent="1" vertex="1">
          <mxGeometry x="389" y="150" width="60" height="20" as="geometry" />
        </mxCell>
        <mxCell id="ekBKaKwR-G3LCnbJ7vXl-5" value="process" style="rounded=0;whiteSpace=wrap;html=1;fillColor=#f8cecc;strokeColor=#b85450;" parent="1" vertex="1">
          <mxGeometry x="389" y="210" width="150" height="20" as="geometry" />
        </mxCell>
        <mxCell id="ekBKaKwR-G3LCnbJ7vXl-11" style="edgeStyle=orthogonalEdgeStyle;rounded=0;orthogonalLoop=1;jettySize=auto;html=1;entryX=0;entryY=0;entryDx=0;entryDy=0;" parent="1" source="ekBKaKwR-G3LCnbJ7vXl-6" target="ekBKaKwR-G3LCnbJ7vXl-9" edge="1">
          <mxGeometry relative="1" as="geometry">
            <Array as="points">
              <mxPoint x="539" y="240" />
              <mxPoint x="539" y="240" />
            </Array>
          </mxGeometry>
        </mxCell>
        <mxCell id="ekBKaKwR-G3LCnbJ7vXl-6" value="quit" style="rounded=0;whiteSpace=wrap;html=1;" parent="1" vertex="1">
          <mxGeometry x="539" y="210" width="60" height="20" as="geometry" />
        </mxCell>
        <mxCell id="ekBKaKwR-G3LCnbJ7vXl-9" value="process" style="rounded=0;whiteSpace=wrap;html=1;fillColor=#f8cecc;strokeColor=#b85450;" parent="1" vertex="1">
          <mxGeometry x="539" y="270" width="150" height="20" as="geometry" />
        </mxCell>
        <mxCell id="ekBKaKwR-G3LCnbJ7vXl-10" value="quit" style="rounded=0;whiteSpace=wrap;html=1;" parent="1" vertex="1">
          <mxGeometry x="689" y="270" width="60" height="20" as="geometry" />
        </mxCell>
        <mxCell id="ekBKaKwR-G3LCnbJ7vXl-12" value="init()" style="rounded=0;whiteSpace=wrap;html=1;" parent="1" vertex="1">
          <mxGeometry x="179" y="645" width="40" height="20" as="geometry" />
        </mxCell>
        <mxCell id="ekBKaKwR-G3LCnbJ7vXl-13" value="execute()" style="rounded=0;whiteSpace=wrap;html=1;fillColor=#f8cecc;strokeColor=#b85450;" parent="1" vertex="1">
          <mxGeometry x="269" y="645" width="150" height="20" as="geometry" />
        </mxCell>
        <mxCell id="ekBKaKwR-G3LCnbJ7vXl-26" style="rounded=0;orthogonalLoop=1;jettySize=auto;html=1;endArrow=none;endFill=0;dashed=1;exitX=1;exitY=1;exitDx=0;exitDy=0;" parent="1" source="ekBKaKwR-G3LCnbJ7vXl-13" edge="1">
          <mxGeometry relative="1" as="geometry">
            <mxPoint x="419" y="675" as="targetPoint" />
          </mxGeometry>
        </mxCell>
        <mxCell id="ekBKaKwR-G3LCnbJ7vXl-14" value="quit()" style="rounded=0;whiteSpace=wrap;html=1;" parent="1" vertex="1">
          <mxGeometry x="419" y="645" width="60" height="20" as="geometry" />
        </mxCell>
        <mxCell id="ekBKaKwR-G3LCnbJ7vXl-15" value="" style="endArrow=none;dashed=1;html=1;strokeWidth=1;rounded=0;exitX=1;exitY=0;exitDx=0;exitDy=0;entryX=0;entryY=0;entryDx=0;entryDy=0;dashPattern=1 1;" parent="1" source="ekBKaKwR-G3LCnbJ7vXl-12" target="ekBKaKwR-G3LCnbJ7vXl-13" edge="1">
          <mxGeometry width="50" height="50" relative="1" as="geometry">
            <mxPoint x="409" y="595" as="sourcePoint" />
            <mxPoint x="459" y="545" as="targetPoint" />
          </mxGeometry>
        </mxCell>
        <mxCell id="ekBKaKwR-G3LCnbJ7vXl-16" value="" style="endArrow=none;dashed=1;html=1;strokeWidth=1;rounded=0;exitX=1;exitY=1;exitDx=0;exitDy=0;entryX=0;entryY=1;entryDx=0;entryDy=0;dashPattern=1 1;" parent="1" source="ekBKaKwR-G3LCnbJ7vXl-12" target="ekBKaKwR-G3LCnbJ7vXl-13" edge="1">
          <mxGeometry width="50" height="50" relative="1" as="geometry">
            <mxPoint x="259" y="655" as="sourcePoint" />
            <mxPoint x="279" y="655" as="targetPoint" />
          </mxGeometry>
        </mxCell>
        <mxCell id="ekBKaKwR-G3LCnbJ7vXl-22" style="edgeStyle=orthogonalEdgeStyle;rounded=0;orthogonalLoop=1;jettySize=auto;html=1;entryX=0;entryY=0.5;entryDx=0;entryDy=0;" parent="1" source="ekBKaKwR-G3LCnbJ7vXl-19" target="ekBKaKwR-G3LCnbJ7vXl-20" edge="1">
          <mxGeometry relative="1" as="geometry">
            <Array as="points">
              <mxPoint x="219" y="703" />
              <mxPoint x="249" y="703" />
            </Array>
          </mxGeometry>
        </mxCell>
        <mxCell id="ekBKaKwR-G3LCnbJ7vXl-19" value="ready" style="text;html=1;align=center;verticalAlign=middle;whiteSpace=wrap;rounded=0;" parent="1" vertex="1">
          <mxGeometry x="189" y="665" width="60" height="15" as="geometry" />
        </mxCell>
        <mxCell id="ekBKaKwR-G3LCnbJ7vXl-21" style="edgeStyle=orthogonalEdgeStyle;rounded=0;orthogonalLoop=1;jettySize=auto;html=1;" parent="1" source="ekBKaKwR-G3LCnbJ7vXl-20" edge="1">
          <mxGeometry relative="1" as="geometry">
            <mxPoint x="269" y="665" as="targetPoint" />
            <Array as="points">
              <mxPoint x="269" y="695" />
              <mxPoint x="269" y="695" />
            </Array>
          </mxGeometry>
        </mxCell>
        <mxCell id="ekBKaKwR-G3LCnbJ7vXl-20" value="start()" style="text;html=1;align=center;verticalAlign=middle;whiteSpace=wrap;rounded=0;" parent="1" vertex="1">
          <mxGeometry x="249" y="695" width="40" height="15" as="geometry" />
        </mxCell>
        <mxCell id="ekBKaKwR-G3LCnbJ7vXl-24" style="edgeStyle=orthogonalEdgeStyle;rounded=0;orthogonalLoop=1;jettySize=auto;html=1;" parent="1" source="ekBKaKwR-G3LCnbJ7vXl-23" target="ekBKaKwR-G3LCnbJ7vXl-25" edge="1">
          <mxGeometry relative="1" as="geometry">
            <Array as="points">
              <mxPoint x="409" y="675" />
              <mxPoint x="429" y="675" />
            </Array>
          </mxGeometry>
        </mxCell>
        <mxCell id="ekBKaKwR-G3LCnbJ7vXl-23" value="done" style="text;html=1;align=center;verticalAlign=middle;whiteSpace=wrap;rounded=0;" parent="1" vertex="1">
          <mxGeometry x="389" y="695" width="40" height="15" as="geometry" />
        </mxCell>
        <mxCell id="ekBKaKwR-G3LCnbJ7vXl-25" value="True" style="text;html=1;align=center;verticalAlign=middle;whiteSpace=wrap;rounded=0;" parent="1" vertex="1">
          <mxGeometry x="399" y="720" width="60" height="15" as="geometry" />
        </mxCell>
        <mxCell id="ekBKaKwR-G3LCnbJ7vXl-28" value="&lt;div style=&quot;font-size: 11px;&quot;&gt;CASE _state OF&lt;/div&gt;&lt;div style=&quot;font-size: 11px;&quot;&gt;&lt;span style=&quot;white-space: pre;&quot;&gt;&#x9;&lt;/span&gt;0:&amp;nbsp;&lt;/div&gt;&lt;div style=&quot;font-size: 11px;&quot;&gt;&lt;span style=&quot;white-space: pre;&quot;&gt;&#x9;&#x9;&lt;/span&gt;_done := FALSE;&lt;/div&gt;&lt;div style=&quot;font-size: 11px;&quot;&gt;&lt;span style=&quot;white-space: pre;&quot;&gt;&#x9;&#x9;&lt;/span&gt;_ready := FALSE;&lt;/div&gt;&lt;div style=&quot;font-size: 11px;&quot;&gt;&lt;span style=&quot;white-space: pre;&quot;&gt;&#x9;&#x9;&lt;/span&gt;_start := FALSE;&lt;/div&gt;&lt;div style=&quot;font-size: 11px;&quot;&gt;&lt;span style=&quot;white-space: pre;&quot;&gt;&#x9;&#x9;&lt;/span&gt;_state := 1;&lt;/div&gt;&lt;div style=&quot;font-size: 11px;&quot;&gt;&lt;span style=&quot;white-space: pre;&quot;&gt;&#x9;&lt;/span&gt;1:&lt;/div&gt;&lt;div style=&quot;font-size: 11px;&quot;&gt;&lt;span style=&quot;white-space: pre;&quot;&gt;&#x9;&#x9;&lt;/span&gt;IF itfActivity.init() THEN&lt;/div&gt;&lt;div style=&quot;font-size: 11px;&quot;&gt;&lt;span style=&quot;white-space: pre;&quot;&gt;&#x9;&#x9;&#x9;&lt;/span&gt;_ready := TRUE;&lt;/div&gt;&lt;div style=&quot;font-size: 11px;&quot;&gt;&lt;span style=&quot;white-space: pre;&quot;&gt;&#x9;&#x9;&#x9;&lt;/span&gt;_state := 2;&lt;/div&gt;&lt;div style=&quot;font-size: 11px;&quot;&gt;&lt;span style=&quot;white-space: pre;&quot;&gt;&#x9;&#x9;&lt;/span&gt;END_IF&lt;/div&gt;&lt;div style=&quot;font-size: 11px;&quot;&gt;&lt;span style=&quot;white-space: pre;&quot;&gt;&#x9;&lt;/span&gt;2:&amp;nbsp;&lt;/div&gt;&lt;div style=&quot;font-size: 11px;&quot;&gt;&lt;span style=&quot;white-space: pre;&quot;&gt;&#x9;&#x9;&lt;/span&gt;IF _start THEN&lt;/div&gt;&lt;div style=&quot;font-size: 11px;&quot;&gt;&lt;span style=&quot;white-space: pre;&quot;&gt;&#x9;&#x9;&#x9;&lt;/span&gt;IF itfActivity.process() THEN&lt;/div&gt;&lt;div style=&quot;font-size: 11px;&quot;&gt;&lt;span style=&quot;white-space: pre;&quot;&gt;&#x9;&#x9;&#x9;&#x9;&lt;/span&gt;_state := 3;&lt;/div&gt;&lt;div style=&quot;font-size: 11px;&quot;&gt;&lt;span style=&quot;white-space: pre;&quot;&gt;&#x9;&#x9;&#x9;&#x9;&lt;/span&gt;_done := TRUE;&lt;/div&gt;&lt;div style=&quot;font-size: 11px;&quot;&gt;&lt;span style=&quot;white-space: pre;&quot;&gt;&#x9;&#x9;&#x9;&lt;/span&gt;END_IF&lt;span style=&quot;white-space: pre;&quot;&gt;&#x9;&#x9;&#x9;&lt;/span&gt;&lt;/div&gt;&lt;div style=&quot;font-size: 11px;&quot;&gt;&lt;span style=&quot;white-space: pre;&quot;&gt;&#x9;&#x9;&lt;/span&gt;END_IF&lt;/div&gt;&lt;div style=&quot;font-size: 11px;&quot;&gt;&lt;span style=&quot;white-space: pre;&quot;&gt;&#x9;&lt;/span&gt;3:&lt;/div&gt;&lt;div style=&quot;font-size: 11px;&quot;&gt;&lt;span style=&quot;white-space: pre;&quot;&gt;&#x9;&#x9;&lt;/span&gt;IF itfActivity.quit() THEN&lt;/div&gt;&lt;div style=&quot;font-size: 11px;&quot;&gt;&lt;span style=&quot;white-space: pre;&quot;&gt;&#x9;&#x9;&#x9;&lt;/span&gt;_state := 0;&lt;/div&gt;&lt;div style=&quot;font-size: 11px;&quot;&gt;&lt;span style=&quot;white-space: pre;&quot;&gt;&#x9;&#x9;&#x9;&lt;/span&gt;execute := TRUE;&lt;/div&gt;&lt;div style=&quot;font-size: 11px;&quot;&gt;&lt;span style=&quot;white-space: pre;&quot;&gt;&#x9;&#x9;&lt;/span&gt;END_IF&lt;/div&gt;&lt;div style=&quot;font-size: 11px;&quot;&gt;END_CASE&lt;/div&gt;" style="rounded=1;whiteSpace=wrap;html=1;align=left;arcSize=3;" parent="1" vertex="1">
          <mxGeometry x="519" y="520" width="225" height="340" as="geometry" />
        </mxCell>
        <mxCell id="ekBKaKwR-G3LCnbJ7vXl-29" value="Future1" style="text;html=1;align=center;verticalAlign=middle;whiteSpace=wrap;rounded=0;" parent="1" vertex="1">
          <mxGeometry x="79" y="145" width="90" height="30" as="geometry" />
        </mxCell>
        <mxCell id="ekBKaKwR-G3LCnbJ7vXl-30" value="Future2" style="text;html=1;align=center;verticalAlign=middle;whiteSpace=wrap;rounded=0;" parent="1" vertex="1">
          <mxGeometry x="79" y="205" width="90" height="30" as="geometry" />
        </mxCell>
        <mxCell id="ekBKaKwR-G3LCnbJ7vXl-31" value="Future3" style="text;html=1;align=center;verticalAlign=middle;whiteSpace=wrap;rounded=0;" parent="1" vertex="1">
          <mxGeometry x="79" y="260" width="90" height="30" as="geometry" />
        </mxCell>
        <mxCell id="qMxwHSp6M0DD8BOLpyZ6-1" value="init" style="rounded=0;whiteSpace=wrap;html=1;" parent="1" vertex="1">
          <mxGeometry x="179" y="210" width="110" height="20" as="geometry" />
        </mxCell>
        <mxCell id="qMxwHSp6M0DD8BOLpyZ6-2" value="" style="endArrow=none;dashed=1;html=1;strokeWidth=1;rounded=0;exitX=1;exitY=0;exitDx=0;exitDy=0;entryX=0;entryY=0;entryDx=0;entryDy=0;" parent="1" source="qMxwHSp6M0DD8BOLpyZ6-1" target="ekBKaKwR-G3LCnbJ7vXl-5" edge="1">
          <mxGeometry width="50" height="50" relative="1" as="geometry">
            <mxPoint x="409" y="159" as="sourcePoint" />
            <mxPoint x="269" y="209" as="targetPoint" />
          </mxGeometry>
        </mxCell>
        <mxCell id="qMxwHSp6M0DD8BOLpyZ6-3" value="" style="endArrow=none;dashed=1;html=1;strokeWidth=1;rounded=0;exitX=1;exitY=1;exitDx=0;exitDy=0;entryX=0;entryY=1;entryDx=0;entryDy=0;" parent="1" source="qMxwHSp6M0DD8BOLpyZ6-1" target="ekBKaKwR-G3LCnbJ7vXl-5" edge="1">
          <mxGeometry width="50" height="50" relative="1" as="geometry">
            <mxPoint x="259" y="219" as="sourcePoint" />
            <mxPoint x="269" y="229" as="targetPoint" />
          </mxGeometry>
        </mxCell>
        <mxCell id="qMxwHSp6M0DD8BOLpyZ6-4" value="init" style="rounded=0;whiteSpace=wrap;html=1;" parent="1" vertex="1">
          <mxGeometry x="179" y="270" width="80" height="20" as="geometry" />
        </mxCell>
        <mxCell id="qMxwHSp6M0DD8BOLpyZ6-5" value="" style="endArrow=none;dashed=1;html=1;strokeWidth=1;rounded=0;exitX=1;exitY=0;exitDx=0;exitDy=0;entryX=0;entryY=0;entryDx=0;entryDy=0;" parent="1" source="qMxwHSp6M0DD8BOLpyZ6-4" target="ekBKaKwR-G3LCnbJ7vXl-9" edge="1">
          <mxGeometry width="50" height="50" relative="1" as="geometry">
            <mxPoint x="409" y="219" as="sourcePoint" />
            <mxPoint x="389" y="270" as="targetPoint" />
          </mxGeometry>
        </mxCell>
        <mxCell id="qMxwHSp6M0DD8BOLpyZ6-6" value="" style="endArrow=none;dashed=1;html=1;strokeWidth=1;rounded=0;exitX=1;exitY=1;exitDx=0;exitDy=0;entryX=0;entryY=1;entryDx=0;entryDy=0;" parent="1" source="qMxwHSp6M0DD8BOLpyZ6-4" target="ekBKaKwR-G3LCnbJ7vXl-9" edge="1">
          <mxGeometry width="50" height="50" relative="1" as="geometry">
            <mxPoint x="259" y="279" as="sourcePoint" />
            <mxPoint x="389" y="290" as="targetPoint" />
          </mxGeometry>
        </mxCell>
        <mxCell id="qMxwHSp6M0DD8BOLpyZ6-7" value="init" style="rounded=0;whiteSpace=wrap;html=1;" parent="1" vertex="1">
          <mxGeometry x="179" y="350" width="60" height="20" as="geometry" />
        </mxCell>
        <mxCell id="qMxwHSp6M0DD8BOLpyZ6-8" value="process" style="rounded=0;whiteSpace=wrap;html=1;fillColor=#f8cecc;strokeColor=#b85450;" parent="1" vertex="1">
          <mxGeometry x="269" y="350" width="154" height="20" as="geometry" />
        </mxCell>
        <mxCell id="qMxwHSp6M0DD8BOLpyZ6-10" value="quit" style="rounded=0;whiteSpace=wrap;html=1;" parent="1" vertex="1">
          <mxGeometry x="423" y="350" width="60" height="20" as="geometry" />
        </mxCell>
        <mxCell id="qMxwHSp6M0DD8BOLpyZ6-11" value="process" style="rounded=0;whiteSpace=wrap;html=1;fillColor=#f8cecc;strokeColor=#b85450;" parent="1" vertex="1">
          <mxGeometry x="269" y="410" width="304" height="20" as="geometry" />
        </mxCell>
        <mxCell id="qMxwHSp6M0DD8BOLpyZ6-13" value="quit" style="rounded=0;whiteSpace=wrap;html=1;" parent="1" vertex="1">
          <mxGeometry x="573" y="410" width="60" height="20" as="geometry" />
        </mxCell>
        <mxCell id="qMxwHSp6M0DD8BOLpyZ6-14" value="process" style="rounded=0;whiteSpace=wrap;html=1;fillColor=#f8cecc;strokeColor=#b85450;" parent="1" vertex="1">
          <mxGeometry x="269" y="470" width="240" height="20" as="geometry" />
        </mxCell>
        <mxCell id="qMxwHSp6M0DD8BOLpyZ6-15" value="quit" style="rounded=0;whiteSpace=wrap;html=1;" parent="1" vertex="1">
          <mxGeometry x="509" y="470" width="60" height="20" as="geometry" />
        </mxCell>
        <mxCell id="qMxwHSp6M0DD8BOLpyZ6-19" value="init" style="rounded=0;whiteSpace=wrap;html=1;" parent="1" vertex="1">
          <mxGeometry x="179" y="410" width="90" height="20" as="geometry" />
        </mxCell>
        <mxCell id="qMxwHSp6M0DD8BOLpyZ6-22" value="init" style="rounded=0;whiteSpace=wrap;html=1;" parent="1" vertex="1">
          <mxGeometry x="179" y="470" width="80" height="20" as="geometry" />
        </mxCell>
        <mxCell id="qMxwHSp6M0DD8BOLpyZ6-25" value="" style="endArrow=none;dashed=1;html=1;strokeWidth=1;rounded=0;exitX=1;exitY=1;exitDx=0;exitDy=0;entryX=0;entryY=1;entryDx=0;entryDy=0;" parent="1" source="qMxwHSp6M0DD8BOLpyZ6-7" target="qMxwHSp6M0DD8BOLpyZ6-8" edge="1">
          <mxGeometry width="50" height="50" relative="1" as="geometry">
            <mxPoint x="249" y="240" as="sourcePoint" />
            <mxPoint x="399" y="240" as="targetPoint" />
          </mxGeometry>
        </mxCell>
        <mxCell id="qMxwHSp6M0DD8BOLpyZ6-26" value="" style="endArrow=none;dashed=1;html=1;strokeWidth=1;rounded=0;exitX=1;exitY=0;exitDx=0;exitDy=0;entryX=0;entryY=0;entryDx=0;entryDy=0;" parent="1" source="qMxwHSp6M0DD8BOLpyZ6-7" target="qMxwHSp6M0DD8BOLpyZ6-8" edge="1">
          <mxGeometry width="50" height="50" relative="1" as="geometry">
            <mxPoint x="249" y="380" as="sourcePoint" />
            <mxPoint x="283" y="380" as="targetPoint" />
          </mxGeometry>
        </mxCell>
        <mxCell id="qMxwHSp6M0DD8BOLpyZ6-28" value="" style="endArrow=none;dashed=1;html=1;strokeWidth=1;rounded=0;exitX=1;exitY=0;exitDx=0;exitDy=0;entryX=0;entryY=0;entryDx=0;entryDy=0;" parent="1" source="qMxwHSp6M0DD8BOLpyZ6-22" target="qMxwHSp6M0DD8BOLpyZ6-14" edge="1">
          <mxGeometry width="50" height="50" relative="1" as="geometry">
            <mxPoint x="249" y="380" as="sourcePoint" />
            <mxPoint x="279" y="380" as="targetPoint" />
          </mxGeometry>
        </mxCell>
        <mxCell id="qMxwHSp6M0DD8BOLpyZ6-29" value="" style="endArrow=none;dashed=1;html=1;strokeWidth=1;rounded=0;exitX=1;exitY=1;exitDx=0;exitDy=0;entryX=0;entryY=1;entryDx=0;entryDy=0;" parent="1" source="qMxwHSp6M0DD8BOLpyZ6-22" target="qMxwHSp6M0DD8BOLpyZ6-14" edge="1">
          <mxGeometry width="50" height="50" relative="1" as="geometry">
            <mxPoint x="249" y="480" as="sourcePoint" />
            <mxPoint x="279" y="480" as="targetPoint" />
          </mxGeometry>
        </mxCell>
        <mxCell id="qMxwHSp6M0DD8BOLpyZ6-30" style="edgeStyle=orthogonalEdgeStyle;rounded=0;orthogonalLoop=1;jettySize=auto;html=1;entryX=0;entryY=0;entryDx=0;entryDy=0;exitX=0;exitY=1;exitDx=0;exitDy=0;" parent="1" source="qMxwHSp6M0DD8BOLpyZ6-11" target="qMxwHSp6M0DD8BOLpyZ6-14" edge="1">
          <mxGeometry relative="1" as="geometry">
            <mxPoint x="549" y="240" as="sourcePoint" />
            <mxPoint x="549" y="280" as="targetPoint" />
            <Array as="points">
              <mxPoint x="269" y="455" />
              <mxPoint x="269" y="455" />
            </Array>
          </mxGeometry>
        </mxCell>
        <mxCell id="qMxwHSp6M0DD8BOLpyZ6-31" style="edgeStyle=orthogonalEdgeStyle;rounded=0;orthogonalLoop=1;jettySize=auto;html=1;entryX=0;entryY=0.75;entryDx=0;entryDy=0;exitX=0;exitY=0;exitDx=0;exitDy=0;" parent="1" source="qMxwHSp6M0DD8BOLpyZ6-11" target="qMxwHSp6M0DD8BOLpyZ6-8" edge="1">
          <mxGeometry relative="1" as="geometry">
            <mxPoint x="279" y="440" as="sourcePoint" />
            <mxPoint x="279" y="480" as="targetPoint" />
            <Array as="points">
              <mxPoint x="269" y="385" />
              <mxPoint x="269" y="385" />
            </Array>
          </mxGeometry>
        </mxCell>
        <mxCell id="qMxwHSp6M0DD8BOLpyZ6-32" value="Future1" style="text;html=1;align=center;verticalAlign=middle;whiteSpace=wrap;rounded=0;" parent="1" vertex="1">
          <mxGeometry x="79" y="345" width="90" height="30" as="geometry" />
        </mxCell>
        <mxCell id="qMxwHSp6M0DD8BOLpyZ6-33" value="Future2" style="text;html=1;align=center;verticalAlign=middle;whiteSpace=wrap;rounded=0;" parent="1" vertex="1">
          <mxGeometry x="79" y="405" width="90" height="30" as="geometry" />
        </mxCell>
        <mxCell id="qMxwHSp6M0DD8BOLpyZ6-34" value="Future3" style="text;html=1;align=center;verticalAlign=middle;whiteSpace=wrap;rounded=0;" parent="1" vertex="1">
          <mxGeometry x="79" y="465" width="90" height="30" as="geometry" />
        </mxCell>
        <mxCell id="N55h_TjBf2A_co_G8dh0-1" value="serial process" style="text;html=1;align=left;verticalAlign=middle;whiteSpace=wrap;rounded=0;" parent="1" vertex="1">
          <mxGeometry x="40" y="90" width="120" height="30" as="geometry" />
        </mxCell>
        <mxCell id="N55h_TjBf2A_co_G8dh0-2" value="cue process" style="text;html=1;align=left;verticalAlign=middle;whiteSpace=wrap;rounded=0;" parent="1" vertex="1">
          <mxGeometry x="40" y="300" width="120" height="30" as="geometry" />
        </mxCell>
      </root>
    </mxGraphModel>
  </diagram>
  <diagram id="F5583_RNdthROZGM0N9B" name="activities">
    <mxGraphModel dx="1418" dy="828" grid="1" gridSize="10" guides="1" tooltips="1" connect="1" arrows="1" fold="1" page="1" pageScale="1" pageWidth="827" pageHeight="1169" math="0" shadow="0">
      <root>
        <mxCell id="0" />
        <mxCell id="1" parent="0" />
        <mxCell id="sjIp5sbAlrpmIGDsOElM-9" value="" style="rounded=0;whiteSpace=wrap;html=1;" parent="1" vertex="1">
          <mxGeometry x="373" y="400" width="287" height="80" as="geometry" />
        </mxCell>
        <mxCell id="sjIp5sbAlrpmIGDsOElM-3" value="" style="rounded=0;whiteSpace=wrap;html=1;" parent="1" vertex="1">
          <mxGeometry x="80" y="400" width="293" height="40" as="geometry" />
        </mxCell>
        <mxCell id="sjIp5sbAlrpmIGDsOElM-1" value="" style="endArrow=none;html=1;rounded=0;strokeWidth=3;fillColor=#d5e8d4;strokeColor=#82b366;" parent="1" edge="1">
          <mxGeometry width="50" height="50" relative="1" as="geometry">
            <mxPoint x="91.26923076923077" y="413" as="sourcePoint" />
            <mxPoint x="222.74358974358975" y="413" as="targetPoint" />
          </mxGeometry>
        </mxCell>
        <mxCell id="sjIp5sbAlrpmIGDsOElM-2" value="" style="endArrow=none;html=1;rounded=0;strokeWidth=3;fillColor=#e1d5e7;strokeColor=#9673a6;" parent="1" edge="1">
          <mxGeometry width="50" height="50" relative="1" as="geometry">
            <mxPoint x="222.74358974358975" y="430" as="sourcePoint" />
            <mxPoint x="354.21794871794873" y="430" as="targetPoint" />
          </mxGeometry>
        </mxCell>
        <mxCell id="sjIp5sbAlrpmIGDsOElM-4" value="" style="rounded=0;whiteSpace=wrap;html=1;" parent="1" vertex="1">
          <mxGeometry x="80" y="440" width="293" height="40" as="geometry" />
        </mxCell>
        <mxCell id="sjIp5sbAlrpmIGDsOElM-5" value="" style="endArrow=none;html=1;rounded=0;strokeWidth=3;fillColor=#fff2cc;strokeColor=#d6b656;entryX=0.615;entryY=0.325;entryDx=0;entryDy=0;entryPerimeter=0;" parent="1" target="sjIp5sbAlrpmIGDsOElM-4" edge="1">
          <mxGeometry width="50" height="50" relative="1" as="geometry">
            <mxPoint x="91.26923076923077" y="453" as="sourcePoint" />
            <mxPoint x="222.74358974358975" y="453" as="targetPoint" />
          </mxGeometry>
        </mxCell>
        <mxCell id="sjIp5sbAlrpmIGDsOElM-6" value="" style="endArrow=none;html=1;rounded=0;strokeWidth=3;fillColor=#dae8fc;strokeColor=#6c8ebf;" parent="1" edge="1">
          <mxGeometry width="50" height="50" relative="1" as="geometry">
            <mxPoint x="260.3076923076923" y="470" as="sourcePoint" />
            <mxPoint x="354.21794871794873" y="470" as="targetPoint" />
          </mxGeometry>
        </mxCell>
        <mxCell id="sjIp5sbAlrpmIGDsOElM-7" value="" style="endArrow=none;html=1;rounded=0;strokeWidth=3;fillColor=#6a00ff;strokeColor=#3700CC;" parent="1" edge="1">
          <mxGeometry width="50" height="50" relative="1" as="geometry">
            <mxPoint x="424.7628205128205" y="419.5" as="sourcePoint" />
            <mxPoint x="556.2371794871794" y="419.5" as="targetPoint" />
          </mxGeometry>
        </mxCell>
        <mxCell id="sjIp5sbAlrpmIGDsOElM-8" value="" style="endArrow=none;html=1;rounded=0;strokeWidth=3;fillColor=#008a00;strokeColor=#005700;entryX=0.897;entryY=0.744;entryDx=0;entryDy=0;entryPerimeter=0;" parent="1" edge="1">
          <mxGeometry width="50" height="50" relative="1" as="geometry">
            <mxPoint x="424.7628205128205" y="459.5" as="sourcePoint" />
            <mxPoint x="606.8209999999999" y="459.52" as="targetPoint" />
          </mxGeometry>
        </mxCell>
        <mxCell id="sjIp5sbAlrpmIGDsOElM-11" value="batch_job1" style="text;html=1;align=center;verticalAlign=middle;whiteSpace=wrap;rounded=0;" parent="1" vertex="1">
          <mxGeometry x="80" y="370" width="60" height="30" as="geometry" />
        </mxCell>
        <mxCell id="sjIp5sbAlrpmIGDsOElM-12" value="batch_job2" style="text;html=1;align=center;verticalAlign=middle;whiteSpace=wrap;rounded=0;" parent="1" vertex="1">
          <mxGeometry x="80" y="480" width="60" height="30" as="geometry" />
        </mxCell>
        <mxCell id="sjIp5sbAlrpmIGDsOElM-15" value="paralell_job1" style="text;html=1;align=center;verticalAlign=middle;whiteSpace=wrap;rounded=0;" parent="1" vertex="1">
          <mxGeometry x="60" y="340" width="80" height="30" as="geometry" />
        </mxCell>
        <mxCell id="sjIp5sbAlrpmIGDsOElM-16" value="paralell_job2" style="text;html=1;align=center;verticalAlign=middle;whiteSpace=wrap;rounded=0;" parent="1" vertex="1">
          <mxGeometry x="374" y="370" width="80" height="30" as="geometry" />
        </mxCell>
        <mxCell id="sjIp5sbAlrpmIGDsOElM-13" value="" style="rounded=0;whiteSpace=wrap;html=1;fillColor=none;dashed=1;strokeWidth=2;" parent="1" vertex="1">
          <mxGeometry x="64" y="370" width="310" height="140" as="geometry" />
        </mxCell>
        <mxCell id="sjIp5sbAlrpmIGDsOElM-17" value="" style="shape=curlyBracket;whiteSpace=wrap;html=1;rounded=1;flipH=1;labelPosition=right;verticalLabelPosition=middle;align=left;verticalAlign=middle;rotation=90;" parent="1" vertex="1">
          <mxGeometry x="360" y="240" width="20" height="580" as="geometry" />
        </mxCell>
        <mxCell id="sjIp5sbAlrpmIGDsOElM-18" value="Queue_job3" style="text;html=1;align=center;verticalAlign=middle;whiteSpace=wrap;rounded=0;" parent="1" vertex="1">
          <mxGeometry x="334" y="540" width="80" height="30" as="geometry" />
        </mxCell>
      </root>
    </mxGraphModel>
  </diagram>
  <diagram id="UFwmAozoaVNNuuFWhqGz" name="activity">
    <mxGraphModel dx="6381" dy="2760" grid="1" gridSize="10" guides="1" tooltips="1" connect="1" arrows="1" fold="1" page="1" pageScale="1" pageWidth="1654" pageHeight="1169" math="0" shadow="0">
      <root>
        <mxCell id="0" />
        <mxCell id="1" parent="0" />
        <mxCell id="QydJ03svFjGCSjJNbUqy-102" value="FB_Executor" style="shape=umlFrame;whiteSpace=wrap;html=1;pointerEvents=0;recursiveResize=0;container=1;collapsible=0;width=110;height=25;verticalAlign=top;" vertex="1" parent="1">
          <mxGeometry x="-1370" y="170" width="670" height="815" as="geometry" />
        </mxCell>
        <mxCell id="QydJ03svFjGCSjJNbUqy-59" style="edgeStyle=orthogonalEdgeStyle;rounded=0;orthogonalLoop=1;jettySize=auto;html=1;endArrow=open;endFill=0;endSize=6;" edge="1" parent="QydJ03svFjGCSjJNbUqy-102" source="QydJ03svFjGCSjJNbUqy-60" target="QydJ03svFjGCSjJNbUqy-62">
          <mxGeometry relative="1" as="geometry" />
        </mxCell>
        <mxCell id="QydJ03svFjGCSjJNbUqy-106" value="execute()" style="edgeLabel;html=1;align=center;verticalAlign=middle;resizable=0;points=[];" vertex="1" connectable="0" parent="QydJ03svFjGCSjJNbUqy-59">
          <mxGeometry x="-0.04" relative="1" as="geometry">
            <mxPoint as="offset" />
          </mxGeometry>
        </mxCell>
        <mxCell id="QydJ03svFjGCSjJNbUqy-62" value="init&lt;div&gt;do/ future.init()&lt;/div&gt;" style="html=1;align=center;verticalAlign=top;rounded=1;absoluteArcSize=1;arcSize=10;dashed=0;whiteSpace=wrap;" vertex="1" parent="QydJ03svFjGCSjJNbUqy-102">
          <mxGeometry x="196.25" y="172.5" width="97.5" height="40" as="geometry" />
        </mxCell>
        <mxCell id="QydJ03svFjGCSjJNbUqy-57" style="edgeStyle=orthogonalEdgeStyle;rounded=0;orthogonalLoop=1;jettySize=auto;html=1;endArrow=open;endFill=0;strokeWidth=1;" edge="1" parent="QydJ03svFjGCSjJNbUqy-102" source="QydJ03svFjGCSjJNbUqy-58" target="QydJ03svFjGCSjJNbUqy-60">
          <mxGeometry relative="1" as="geometry" />
        </mxCell>
        <mxCell id="QydJ03svFjGCSjJNbUqy-58" value="" style="ellipse;fillColor=strokeColor;html=1;" vertex="1" parent="QydJ03svFjGCSjJNbUqy-102">
          <mxGeometry x="230" y="22.5" width="30" height="30" as="geometry" />
        </mxCell>
        <mxCell id="QydJ03svFjGCSjJNbUqy-60" value="idle" style="html=1;align=center;verticalAlign=top;rounded=1;absoluteArcSize=1;arcSize=10;dashed=0;whiteSpace=wrap;" vertex="1" parent="QydJ03svFjGCSjJNbUqy-102">
          <mxGeometry x="196.25" y="82.5" width="97.5" height="40" as="geometry" />
        </mxCell>
        <mxCell id="QydJ03svFjGCSjJNbUqy-64" value="process&lt;div&gt;do / future.execute()&lt;/div&gt;" style="html=1;align=center;verticalAlign=top;rounded=1;absoluteArcSize=1;arcSize=10;dashed=0;whiteSpace=wrap;" vertex="1" parent="QydJ03svFjGCSjJNbUqy-102">
          <mxGeometry x="183.13" y="392.5" width="123.75" height="40" as="geometry" />
        </mxCell>
        <mxCell id="QydJ03svFjGCSjJNbUqy-63" style="edgeStyle=orthogonalEdgeStyle;rounded=0;orthogonalLoop=1;jettySize=auto;html=1;endArrow=open;endFill=0;" edge="1" parent="QydJ03svFjGCSjJNbUqy-102" source="QydJ03svFjGCSjJNbUqy-79" target="QydJ03svFjGCSjJNbUqy-69">
          <mxGeometry relative="1" as="geometry" />
        </mxCell>
        <mxCell id="QydJ03svFjGCSjJNbUqy-68" style="edgeStyle=orthogonalEdgeStyle;rounded=0;orthogonalLoop=1;jettySize=auto;html=1;entryX=0.5;entryY=0;entryDx=0;entryDy=0;endArrow=open;endFill=0;" edge="1" parent="QydJ03svFjGCSjJNbUqy-102" source="QydJ03svFjGCSjJNbUqy-83" target="QydJ03svFjGCSjJNbUqy-71">
          <mxGeometry relative="1" as="geometry" />
        </mxCell>
        <mxCell id="QydJ03svFjGCSjJNbUqy-69" value="quit&lt;div&gt;do / future.quit()&lt;/div&gt;" style="html=1;align=center;verticalAlign=top;rounded=1;absoluteArcSize=1;arcSize=10;dashed=0;whiteSpace=wrap;" vertex="1" parent="QydJ03svFjGCSjJNbUqy-102">
          <mxGeometry x="196.25" y="537.5" width="97.5" height="40" as="geometry" />
        </mxCell>
        <mxCell id="QydJ03svFjGCSjJNbUqy-70" style="edgeStyle=orthogonalEdgeStyle;rounded=0;orthogonalLoop=1;jettySize=auto;html=1;endArrow=open;endFill=0;" edge="1" parent="QydJ03svFjGCSjJNbUqy-102" source="QydJ03svFjGCSjJNbUqy-71" target="QydJ03svFjGCSjJNbUqy-97">
          <mxGeometry relative="1" as="geometry" />
        </mxCell>
        <mxCell id="QydJ03svFjGCSjJNbUqy-71" value="finish" style="html=1;align=center;verticalAlign=top;rounded=1;absoluteArcSize=1;arcSize=10;dashed=0;whiteSpace=wrap;" vertex="1" parent="QydJ03svFjGCSjJNbUqy-102">
          <mxGeometry x="196.25" y="692.5" width="97.5" height="40" as="geometry" />
        </mxCell>
        <mxCell id="QydJ03svFjGCSjJNbUqy-76" style="edgeStyle=orthogonalEdgeStyle;rounded=0;orthogonalLoop=1;jettySize=auto;html=1;" edge="1" parent="QydJ03svFjGCSjJNbUqy-102" source="QydJ03svFjGCSjJNbUqy-77" target="QydJ03svFjGCSjJNbUqy-96">
          <mxGeometry relative="1" as="geometry" />
        </mxCell>
        <mxCell id="QydJ03svFjGCSjJNbUqy-77" value="" style="rhombus;" vertex="1" parent="QydJ03svFjGCSjJNbUqy-102">
          <mxGeometry x="463.75" y="487.5" width="30" height="30" as="geometry" />
        </mxCell>
        <mxCell id="QydJ03svFjGCSjJNbUqy-78" value="[future.execute() = TRUE]" style="edgeStyle=orthogonalEdgeStyle;rounded=0;orthogonalLoop=1;jettySize=auto;html=1;endArrow=open;endFill=0;" edge="1" parent="QydJ03svFjGCSjJNbUqy-102" source="QydJ03svFjGCSjJNbUqy-64" target="QydJ03svFjGCSjJNbUqy-79">
          <mxGeometry relative="1" as="geometry">
            <mxPoint x="245.0050000000001" y="472.5" as="sourcePoint" />
            <mxPoint x="244.75" y="522.5" as="targetPoint" />
          </mxGeometry>
        </mxCell>
        <mxCell id="QydJ03svFjGCSjJNbUqy-79" value="" style="rhombus;" vertex="1" parent="QydJ03svFjGCSjJNbUqy-102">
          <mxGeometry x="230" y="487.5" width="30" height="30" as="geometry" />
        </mxCell>
        <mxCell id="QydJ03svFjGCSjJNbUqy-80" style="edgeStyle=orthogonalEdgeStyle;rounded=0;orthogonalLoop=1;jettySize=auto;html=1;endArrow=open;endFill=0;endSize=6;" edge="1" parent="QydJ03svFjGCSjJNbUqy-102" source="QydJ03svFjGCSjJNbUqy-79" target="QydJ03svFjGCSjJNbUqy-77">
          <mxGeometry relative="1" as="geometry">
            <mxPoint x="269.75" y="297.5" as="sourcePoint" />
            <mxPoint x="463.75" y="297.5" as="targetPoint" />
          </mxGeometry>
        </mxCell>
        <mxCell id="QydJ03svFjGCSjJNbUqy-81" value="[Future.nErrID &amp;lt;&amp;gt; 0]" style="edgeLabel;html=1;align=center;verticalAlign=middle;resizable=0;points=[];" vertex="1" connectable="0" parent="QydJ03svFjGCSjJNbUqy-80">
          <mxGeometry x="0.0347" y="1" relative="1" as="geometry">
            <mxPoint as="offset" />
          </mxGeometry>
        </mxCell>
        <mxCell id="QydJ03svFjGCSjJNbUqy-82" value="" style="edgeStyle=orthogonalEdgeStyle;rounded=0;orthogonalLoop=1;jettySize=auto;html=1;entryX=0.5;entryY=0;entryDx=0;entryDy=0;endArrow=open;endFill=0;" edge="1" parent="QydJ03svFjGCSjJNbUqy-102" source="QydJ03svFjGCSjJNbUqy-69" target="QydJ03svFjGCSjJNbUqy-83">
          <mxGeometry relative="1" as="geometry">
            <mxPoint x="244.75" y="602.5" as="sourcePoint" />
            <mxPoint x="244.75" y="692.5" as="targetPoint" />
          </mxGeometry>
        </mxCell>
        <mxCell id="QydJ03svFjGCSjJNbUqy-109" value="[future.quit() = TRUE]" style="edgeLabel;html=1;align=center;verticalAlign=middle;resizable=0;points=[];" vertex="1" connectable="0" parent="QydJ03svFjGCSjJNbUqy-82">
          <mxGeometry x="-0.1134" relative="1" as="geometry">
            <mxPoint as="offset" />
          </mxGeometry>
        </mxCell>
        <mxCell id="QydJ03svFjGCSjJNbUqy-83" value="" style="rhombus;" vertex="1" parent="QydJ03svFjGCSjJNbUqy-102">
          <mxGeometry x="230" y="632.5" width="30" height="30" as="geometry" />
        </mxCell>
        <mxCell id="QydJ03svFjGCSjJNbUqy-84" style="edgeStyle=orthogonalEdgeStyle;rounded=0;orthogonalLoop=1;jettySize=auto;html=1;endArrow=open;endFill=0;endSize=6;exitX=1;exitY=0.5;exitDx=0;exitDy=0;" edge="1" parent="QydJ03svFjGCSjJNbUqy-102" source="QydJ03svFjGCSjJNbUqy-83" target="QydJ03svFjGCSjJNbUqy-77">
          <mxGeometry relative="1" as="geometry">
            <mxPoint x="269.75" y="537.5" as="sourcePoint" />
            <mxPoint x="478.75" y="337.5" as="targetPoint" />
          </mxGeometry>
        </mxCell>
        <mxCell id="QydJ03svFjGCSjJNbUqy-85" value="[Future.nErrID &amp;lt;&amp;gt; 0]" style="edgeLabel;html=1;align=center;verticalAlign=middle;resizable=0;points=[];" vertex="1" connectable="0" parent="QydJ03svFjGCSjJNbUqy-84">
          <mxGeometry x="-0.3958" y="-3" relative="1" as="geometry">
            <mxPoint x="6" y="-3" as="offset" />
          </mxGeometry>
        </mxCell>
        <mxCell id="QydJ03svFjGCSjJNbUqy-86" value="1" style="ellipse;html=1;" vertex="1" parent="QydJ03svFjGCSjJNbUqy-102">
          <mxGeometry x="565" y="577.5" width="30" height="30" as="geometry" />
        </mxCell>
        <mxCell id="QydJ03svFjGCSjJNbUqy-87" value="" style="endArrow=open;html=1;rounded=0;align=center;verticalAlign=top;endFill=0;labelBackgroundColor=none;endSize=6;" edge="1" parent="QydJ03svFjGCSjJNbUqy-102" source="QydJ03svFjGCSjJNbUqy-96" target="QydJ03svFjGCSjJNbUqy-86">
          <mxGeometry relative="1" as="geometry">
            <mxPoint x="553.75" y="572.5" as="sourcePoint" />
            <mxPoint x="580" y="577.5" as="targetPoint" />
          </mxGeometry>
        </mxCell>
        <mxCell id="QydJ03svFjGCSjJNbUqy-88" value="start() [future.abort() = TRUE]" style="edgeLabel;html=1;align=center;verticalAlign=middle;resizable=0;points=[];" vertex="1" connectable="0" parent="QydJ03svFjGCSjJNbUqy-87">
          <mxGeometry x="-0.0771" y="1" relative="1" as="geometry">
            <mxPoint as="offset" />
          </mxGeometry>
        </mxCell>
        <mxCell id="QydJ03svFjGCSjJNbUqy-89" value="1" style="ellipse;html=1;" vertex="1" parent="QydJ03svFjGCSjJNbUqy-102">
          <mxGeometry x="30" y="487.5" width="30" height="30" as="geometry" />
        </mxCell>
        <mxCell id="QydJ03svFjGCSjJNbUqy-90" value="" style="endArrow=open;html=1;rounded=0;align=center;verticalAlign=top;endFill=0;labelBackgroundColor=none;endSize=6;" edge="1" parent="QydJ03svFjGCSjJNbUqy-102" source="QydJ03svFjGCSjJNbUqy-89" target="QydJ03svFjGCSjJNbUqy-93">
          <mxGeometry relative="1" as="geometry">
            <mxPoint x="20" y="502.5" as="targetPoint" />
          </mxGeometry>
        </mxCell>
        <mxCell id="QydJ03svFjGCSjJNbUqy-91" value="Last state" style="edgeLabel;html=1;align=center;verticalAlign=middle;resizable=0;points=[];" vertex="1" connectable="0" parent="QydJ03svFjGCSjJNbUqy-90">
          <mxGeometry x="0.4983" relative="1" as="geometry">
            <mxPoint x="68" y="15" as="offset" />
          </mxGeometry>
        </mxCell>
        <mxCell id="QydJ03svFjGCSjJNbUqy-93" value="" style="rhombus;" vertex="1" parent="QydJ03svFjGCSjJNbUqy-102">
          <mxGeometry x="130" y="487.5" width="30" height="30" as="geometry" />
        </mxCell>
        <mxCell id="QydJ03svFjGCSjJNbUqy-94" style="edgeStyle=orthogonalEdgeStyle;rounded=0;orthogonalLoop=1;jettySize=auto;html=1;endArrow=open;endFill=0;" edge="1" parent="QydJ03svFjGCSjJNbUqy-102" source="QydJ03svFjGCSjJNbUqy-93" target="QydJ03svFjGCSjJNbUqy-79">
          <mxGeometry relative="1" as="geometry">
            <mxPoint x="165" y="492.5" as="sourcePoint" />
            <mxPoint x="240" y="297.5" as="targetPoint" />
            <Array as="points" />
          </mxGeometry>
        </mxCell>
        <mxCell id="QydJ03svFjGCSjJNbUqy-95" style="edgeStyle=orthogonalEdgeStyle;rounded=0;orthogonalLoop=1;jettySize=auto;html=1;endArrow=open;endFill=0;exitX=0.5;exitY=1;exitDx=0;exitDy=0;entryX=0;entryY=0.5;entryDx=0;entryDy=0;" edge="1" parent="QydJ03svFjGCSjJNbUqy-102" source="QydJ03svFjGCSjJNbUqy-93" target="QydJ03svFjGCSjJNbUqy-83">
          <mxGeometry relative="1" as="geometry">
            <mxPoint x="180" y="537.5" as="sourcePoint" />
            <mxPoint x="240" y="537.5" as="targetPoint" />
            <Array as="points" />
          </mxGeometry>
        </mxCell>
        <mxCell id="QydJ03svFjGCSjJNbUqy-96" value="abort" style="html=1;align=center;verticalAlign=top;rounded=1;absoluteArcSize=1;arcSize=10;dashed=0;whiteSpace=wrap;" vertex="1" parent="QydJ03svFjGCSjJNbUqy-102">
          <mxGeometry x="540" y="482.5" width="80" height="40" as="geometry" />
        </mxCell>
        <mxCell id="QydJ03svFjGCSjJNbUqy-97" value="" style="ellipse;html=1;shape=endState;fillColor=strokeColor;" vertex="1" parent="QydJ03svFjGCSjJNbUqy-102">
          <mxGeometry x="230" y="762.5" width="30" height="30" as="geometry" />
        </mxCell>
        <mxCell id="QydJ03svFjGCSjJNbUqy-75" value="" style="rhombus;" vertex="1" parent="QydJ03svFjGCSjJNbUqy-102">
          <mxGeometry x="230.01" y="262.5" width="30" height="30" as="geometry" />
        </mxCell>
        <mxCell id="QydJ03svFjGCSjJNbUqy-72" value="" style="edgeStyle=orthogonalEdgeStyle;rounded=0;orthogonalLoop=1;jettySize=auto;html=1;endArrow=open;endFill=0;endSize=6;" edge="1" parent="QydJ03svFjGCSjJNbUqy-102" source="QydJ03svFjGCSjJNbUqy-62" target="QydJ03svFjGCSjJNbUqy-75">
          <mxGeometry relative="1" as="geometry">
            <mxPoint x="224.75" y="232.5" as="sourcePoint" />
            <mxPoint x="224.75" y="282.5" as="targetPoint" />
          </mxGeometry>
        </mxCell>
        <mxCell id="QydJ03svFjGCSjJNbUqy-108" value="[future.init() = TRUE]" style="edgeLabel;html=1;align=center;verticalAlign=middle;resizable=0;points=[];" vertex="1" connectable="0" parent="QydJ03svFjGCSjJNbUqy-72">
          <mxGeometry x="-0.118" relative="1" as="geometry">
            <mxPoint as="offset" />
          </mxGeometry>
        </mxCell>
        <mxCell id="QydJ03svFjGCSjJNbUqy-73" style="edgeStyle=orthogonalEdgeStyle;rounded=0;orthogonalLoop=1;jettySize=auto;html=1;endArrow=open;endFill=0;endSize=6;" edge="1" parent="QydJ03svFjGCSjJNbUqy-102" source="QydJ03svFjGCSjJNbUqy-75" target="QydJ03svFjGCSjJNbUqy-77">
          <mxGeometry relative="1" as="geometry" />
        </mxCell>
        <mxCell id="QydJ03svFjGCSjJNbUqy-74" value="[Future.nErrID &amp;lt;&amp;gt; 0]" style="edgeLabel;html=1;align=center;verticalAlign=middle;resizable=0;points=[];" vertex="1" connectable="0" parent="QydJ03svFjGCSjJNbUqy-73">
          <mxGeometry x="-0.6381" relative="1" as="geometry">
            <mxPoint x="18" as="offset" />
          </mxGeometry>
        </mxCell>
        <mxCell id="QydJ03svFjGCSjJNbUqy-92" style="edgeStyle=orthogonalEdgeStyle;rounded=0;orthogonalLoop=1;jettySize=auto;html=1;endArrow=open;endFill=0;" edge="1" parent="QydJ03svFjGCSjJNbUqy-102" source="QydJ03svFjGCSjJNbUqy-93" target="QydJ03svFjGCSjJNbUqy-75">
          <mxGeometry relative="1" as="geometry">
            <Array as="points">
              <mxPoint x="145" y="278" />
            </Array>
          </mxGeometry>
        </mxCell>
        <mxCell id="QydJ03svFjGCSjJNbUqy-67" value="wait_for_process" style="html=1;align=center;verticalAlign=top;rounded=1;absoluteArcSize=1;arcSize=10;dashed=0;whiteSpace=wrap;" vertex="1" parent="QydJ03svFjGCSjJNbUqy-102">
          <mxGeometry x="180" y="312.5" width="130" height="40" as="geometry" />
        </mxCell>
        <mxCell id="QydJ03svFjGCSjJNbUqy-61" style="edgeStyle=orthogonalEdgeStyle;rounded=0;orthogonalLoop=1;jettySize=auto;html=1;endArrow=open;endFill=0;endSize=6;" edge="1" parent="QydJ03svFjGCSjJNbUqy-102" source="QydJ03svFjGCSjJNbUqy-75" target="QydJ03svFjGCSjJNbUqy-67">
          <mxGeometry relative="1" as="geometry" />
        </mxCell>
        <mxCell id="QydJ03svFjGCSjJNbUqy-65" style="edgeStyle=orthogonalEdgeStyle;rounded=0;orthogonalLoop=1;jettySize=auto;html=1;endArrow=open;endFill=0;" edge="1" parent="QydJ03svFjGCSjJNbUqy-102" source="QydJ03svFjGCSjJNbUqy-67" target="QydJ03svFjGCSjJNbUqy-64">
          <mxGeometry relative="1" as="geometry" />
        </mxCell>
        <mxCell id="QydJ03svFjGCSjJNbUqy-66" value="start()" style="edgeLabel;html=1;align=center;verticalAlign=middle;resizable=0;points=[];" vertex="1" connectable="0" parent="QydJ03svFjGCSjJNbUqy-65">
          <mxGeometry x="-0.05" y="2" relative="1" as="geometry">
            <mxPoint x="-2" as="offset" />
          </mxGeometry>
        </mxCell>
      </root>
    </mxGraphModel>
  </diagram>
</mxfile>
